<svg width="80" height="80" viewBox="0 0 80 80" fill="none" xmlns="http://www.w3.org/2000/svg">
<path d="M72 0H8C3.58172 0 0 3.58172 0 8V72C0 76.4183 3.58172 80 8 80H72C76.4183 80 80 76.4183 80 72V8C80 3.58172 76.4183 0 72 0Z" fill="#FF5A00"/>
<path d="M48.6481 22H51.1593C54.6889 22.2 58.437 22.8556 61.2481 25.1667C63.4926 26.9853 64.4444 30.0927 63.8926 32.8928C63.4704 34.9817 62.5074 36.9077 61.4704 38.7485C59.3667 42.393 56.7815 45.719 54.3222 49.1227C53.8815 49.6857 53.537 50.3746 53.5815 51.1079C53.6222 51.6894 54.0667 52.1598 54.5889 52.3672C55.6 52.7783 56.7185 52.6969 57.7815 52.6376C61.1407 52.2857 64.3778 51.2672 67.5815 50.245C67.8259 50.0931 67.9074 50.3413 68 50.519C64.5963 52.7895 60.9333 54.6821 57.0815 56.0747C54.9519 56.7895 52.7 57.4673 50.4296 57.2006C49.237 57.0821 48.0407 56.371 47.6667 55.1821C47.2037 53.6339 47.3741 51.9191 48.0444 50.4561C49.063 48.1708 50.6444 46.2078 52.1444 44.2263C54.6296 40.967 57.1963 37.7262 59.1481 34.1039C59.7926 32.8187 60.4815 31.2594 59.8407 29.8409C59.237 28.5335 57.9259 27.7631 56.6704 27.1816C54.4407 26.1853 52.063 25.5853 49.7185 24.9186C49.3654 25.1507 49.0136 25.3852 48.663 25.6223C49.4778 26.2445 50.2926 26.8668 51.1 27.5001C48.0148 28.0557 44.9407 28.6779 41.9037 29.452C37.2778 30.6002 32.763 32.1372 28.2889 33.7669C28.7259 34.6373 29.1593 35.5114 29.5741 36.3929C28.563 37.5114 27.5593 38.641 26.5481 39.7596C28.9778 40.4855 31.5963 40.5855 34.0741 40.0374C36.1926 39.5633 38.1852 38.5485 39.8037 37.1003C39.363 36.5521 38.8074 36.1114 38.2074 35.7484C40.1741 35.7891 41.963 37.504 41.9667 39.4929C41.5815 39.4954 41.1988 39.4979 40.8185 39.5003C40.737 39.067 40.6222 38.6485 40.4704 38.2373C38.237 40.2559 35.3519 41.5189 32.363 41.8448C29.7296 42.1485 27.037 41.7855 24.5593 40.8596C24.7259 42.393 24.8926 43.9189 25.0481 45.4523C23.6407 46.0004 22.3333 46.793 21.163 47.7486C20.2333 48.5597 19.3111 49.4931 18.9556 50.7079C18.6148 51.7783 19.1704 52.9932 20.1074 53.5672C21.2444 54.271 22.5704 54.5969 23.8815 54.7858C25.6111 55.0117 27.3593 54.9932 29.0963 54.871C32.5074 54.6191 35.8778 53.9784 39.1963 53.1746C39.5259 53.0413 39.6815 53.5858 39.3444 53.6709C36.6963 55.0339 33.9259 56.1821 31.037 56.9229C28.3222 57.6229 25.5259 57.9821 22.7259 58.0784C19.8704 57.9895 16.837 57.4377 14.5741 55.5673C12.8926 54.2043 12.0074 52.0413 12 49.8968V49.782C12.0556 47.5153 12.8222 45.3226 13.9259 43.3597C15.3778 40.5892 17.1667 37.9892 19.2815 35.6817C22.937 31.6557 27.5222 28.5409 32.4519 26.2853C37.5593 23.9704 43.0259 22.3074 48.6481 22Z" fill="white"/>
</svg>
