<svg width="80" height="80" viewBox="0 0 80 80" fill="none" xmlns="http://www.w3.org/2000/svg">
<path d="M0 17.9953C0 8.05679 8.05679 0 17.9953 0H62.0047C71.9432 0 80 8.05679 80 17.9953V62.0047C80 71.9432 71.9432 80 62.0047 80H17.9953C8.05679 80 0 71.9432 0 62.0047V17.9953Z" fill="#FF9900"/>
<path d="M0 24.6154C0 16.5821 6.51222 10.0699 14.5455 10.0699H65.4545C73.4878 10.0699 80 16.5822 80 24.6154V62.0047C80 71.9432 71.9432 80 62.0047 80H17.9953C8.05679 80 0 71.9432 0 62.0047V24.6154Z" fill="#E43225"/>
<path d="M22.2848 23.005C22.5865 24.2365 22.4165 25.5665 22.7133 26.8189C23.7478 26.0616 24.4374 24.8116 24.2958 23.5099C24.2749 21.1799 21.6542 19.3536 19.4609 20.1381C18.0817 20.5321 17.062 21.7698 16.8305 23.1675C16.5546 24.7685 17.5164 26.4064 18.9462 27.1379C18.8045 25.7586 18.4733 24.3054 18.844 22.9557C19.4104 21.4853 21.7614 21.5149 22.2848 23.005ZM63.0941 24.6749C63.5966 22.867 62.503 20.771 60.7099 20.1922C58.9858 19.5149 56.8517 20.377 56.0918 22.0567C55.2445 23.6121 55.7568 25.8251 57.3061 26.7364C57.6115 25.4877 57.3861 24.1503 57.7494 22.9372C58.3282 21.4878 60.6496 21.5296 61.1779 22.9988C61.5141 24.3116 61.2099 25.6909 61.0831 27.016C62.1348 26.6908 62.7912 25.6859 63.0929 24.6786L63.0941 24.6749Z" fill="#B32100"/>
<path d="M57.7539 22.9364C57.3894 24.1618 57.6148 25.4881 57.3106 26.7356C56.4091 32.1542 52.7811 36.9965 47.8687 39.4237C45.4234 40.6543 42.7234 41.2935 39.986 41.2901C37.2486 41.2867 34.5502 40.6407 32.108 39.404C27.2411 36.9829 23.6415 32.1813 22.7166 26.8206C22.421 25.5669 22.5885 24.2505 22.288 23.0066C21.7659 21.5288 19.4137 21.4857 18.8472 22.9574C18.4778 24.3194 18.8103 25.7615 18.9495 27.1395C19.9839 33.8389 24.4666 39.8548 30.5403 42.8411C33.3316 44.2221 36.3912 44.9758 39.5046 45.0494C42.618 45.123 45.7098 44.5147 48.5633 43.2672C55.1308 40.4311 60.0408 34.0975 61.0913 27.0115C61.2181 25.6864 61.5223 24.3059 61.1849 22.9943C60.6553 21.5252 58.3352 21.4845 57.7552 22.9328L57.7539 22.9364Z" fill="white"/>
<path d="M25.4234 61.6103V52.5978H30.7503V53.7277H26.5264V56.4987H30.3198V57.6287H26.5264V60.4535H31.0462V61.5835H25.4234V61.6103Z" fill="white"/>
<path d="M36.6431 61.6102L34.8136 59.2158L32.9842 61.6102H31.6928L34.1948 58.4087L31.5583 55.0996H33.0111L34.8136 57.5747L36.6431 55.0996H38.069L35.5669 58.4087L37.9344 61.6102H36.6431Z" fill="white"/>
<path d="M39.709 60.6417V65.0808H38.6059V58.4357C38.6059 56.7408 39.8973 54.9382 41.9151 54.9382C43.9597 54.9382 45.4933 56.2296 45.4933 58.3549C45.4933 60.4265 43.9328 61.8524 42.1572 61.8524C41.2963 61.8524 40.1394 61.4757 39.709 60.6417ZM44.3364 58.3549C44.3364 56.9022 43.3948 56.0413 41.7267 56.122C40.9196 56.1489 39.6821 56.7407 39.7897 58.8123C39.8166 59.4849 40.5161 60.7493 42.0496 60.7493C43.3679 60.7493 44.3364 59.996 44.3364 58.3549Z" fill="white"/>
<path d="M46.4352 55.0997H47.5382V55.7992C48.0763 55.1804 48.9103 54.9652 49.7981 54.9652V56.1489C49.6636 56.122 48.3453 55.9606 47.5382 57.6824V61.6372H46.4352V55.0997Z" fill="white"/>
<path d="M50.0941 58.3549C50.0941 56.4717 51.4393 54.9382 53.2957 54.9382C55.6094 54.9382 56.4703 56.4717 56.4703 58.4357V58.9737H51.3048C51.3855 60.2113 52.4885 60.857 53.5109 60.83C54.2642 60.8031 54.7753 60.5879 55.3134 60.0499L56.0398 60.8031C55.3672 61.4488 54.5063 61.8793 53.4571 61.8793C51.4931 61.8524 50.0941 60.3996 50.0941 58.3549ZM53.2149 56.0413C52.1657 56.0413 51.3586 56.956 51.3048 57.9514H55.3134C55.3134 56.9829 54.6139 56.0413 53.2149 56.0413Z" fill="white"/>
<path d="M57.0354 60.6957L57.8425 59.9694C57.8156 59.9694 58.2461 60.3998 58.2999 60.4267C58.4882 60.5881 58.6765 60.6957 58.9187 60.7496C59.6182 60.9379 60.8826 60.8841 60.9902 59.9156C61.0441 59.3775 60.6405 59.0816 60.1831 58.8932C59.5913 58.678 58.9456 58.5973 58.3537 58.3283C57.6811 58.0323 57.2506 57.5212 57.2506 56.7679C57.2506 54.8039 60.0486 54.4811 61.3131 55.3958C61.3669 55.4496 61.9857 56.0146 61.9588 56.0146L61.1517 56.6603C60.7481 56.176 60.3715 55.9339 59.5105 55.9339C59.0801 55.9339 58.4882 56.1222 58.3806 56.5795C58.2192 57.2252 58.9456 57.4674 59.4298 57.6019C60.0755 57.7633 60.775 57.8709 61.34 58.2206C62.1202 58.7049 62.3085 59.7541 62.0126 60.5612C61.6897 61.449 60.7212 61.7988 59.8603 61.8257C58.838 61.8795 57.9501 61.5566 57.2237 60.8303C57.1699 60.8303 57.0354 60.6957 57.0354 60.6957Z" fill="white"/>
<path d="M62.7121 60.6957L63.5192 59.9694C63.4923 59.9694 63.9228 60.3998 63.9766 60.4267C64.1649 60.5881 64.3532 60.6957 64.5954 60.7496C65.2949 60.9379 66.5593 60.8841 66.667 59.9156C66.7208 59.3775 66.3172 59.0816 65.8599 58.8932C65.268 58.678 64.6223 58.5973 64.0304 58.3283C63.3578 58.0323 62.9274 57.5212 62.9274 56.7679C62.9274 54.8039 65.7253 54.4811 66.9898 55.3958C67.0436 55.4496 67.6624 56.0146 67.6355 56.0146L66.8284 56.6603C66.4248 56.176 66.0482 55.9339 65.1873 55.9339C64.7568 55.9339 64.1649 56.1222 64.0573 56.5795C63.8959 57.2252 64.6223 57.4674 65.1066 57.6019C65.7522 57.7633 66.4517 57.8709 67.0167 58.2206C67.7969 58.7049 67.9852 59.7541 67.6893 60.5612C67.3665 61.449 66.3979 61.7988 65.537 61.8257C64.5147 61.8795 63.6269 61.5566 62.9005 60.8303C62.8466 60.8303 62.7121 60.6957 62.7121 60.6957Z" fill="white"/>
<path d="M67.957 55.0992V54.3997H67.7148V54.2652H68.3605V54.3997H68.1184V55.0992H67.957Z" fill="white"/>
<path d="M69.1668 55.0992V54.4535L68.9247 55.0992H68.8709L68.6288 54.4535V55.0992H68.4942V54.2652H68.7095L68.9247 54.8302L69.1399 54.2652H69.3552V55.0992H69.1668Z" fill="white"/>
<path d="M17.9431 61.6102L17.136 59.458H12.7776L11.9705 61.6102H10.8136L14.3111 52.5977H15.5756L19.0462 61.6102H17.9431ZM14.903 53.889L13.2619 58.3549H16.6786L14.903 53.889Z" fill="white"/>
<path d="M19.7727 61.6102V52.5977H20.9026V61.6102H19.7727Z" fill="white"/>
<path d="M22.5976 61.6103V55.2342H23.7275V61.6103H22.5976Z" fill="white"/>
<path d="M24.8046 53.1626C24.8046 53.1357 24.8046 53.1357 24.8046 53.1088C24.8046 53.0819 24.8046 53.0819 24.8046 53.055C23.9436 53.028 23.2441 52.3286 23.2172 51.4677C23.1903 51.4677 23.1634 51.4677 23.1365 51.4677C23.1096 51.4677 23.0827 51.4677 23.0558 51.4677C23.0289 52.3286 22.3294 53.028 21.4685 53.055C21.4685 53.0819 21.4685 53.0819 21.4685 53.1088C21.4685 53.1357 21.4685 53.1357 21.4685 53.1626C22.3294 53.1895 23.0289 53.889 23.0558 54.7499C23.0827 54.7499 23.1096 54.7499 23.1365 54.7499C23.1634 54.7499 23.1903 54.7499 23.2172 54.7499C23.2441 53.889 23.9436 53.1895 24.8046 53.1626Z" fill="white"/>
</svg>
