<svg width="78" height="80" viewBox="0 0 78 80" fill="none" xmlns="http://www.w3.org/2000/svg">
<path d="M68.0932 65.8556C35.0733 81.5701 14.5808 68.4223 1.46285 60.4365C0.651124 59.9332 -0.728537 60.5542 0.468507 61.9291C4.83874 67.2281 19.1609 80 37.8555 80C56.563 80 67.6922 69.7925 69.0844 68.0118C70.4672 66.2463 69.4907 65.2723 68.0932 65.8556ZM77.3668 60.7343C76.48 59.5796 71.9749 59.3644 69.1396 59.7127C66.3 60.0509 62.0377 61.7864 62.4083 62.8284C62.5984 63.2187 62.9865 63.0436 64.9373 62.8682C66.8933 62.6731 72.3731 61.9815 73.5149 63.4741C74.662 64.9771 71.7672 72.1367 71.2385 73.2913C70.7276 74.446 71.4336 74.7438 72.3931 73.9747C73.3395 73.206 75.0527 71.2151 76.2024 68.3978C77.3442 65.5651 78.0407 61.6135 77.3668 60.7343Z" fill="#FF9900"/>
<path fill-rule="evenodd" clip-rule="evenodd" d="M45.8909 33.7904C45.8909 37.9136 45.9951 41.3522 43.911 45.0139C42.2289 47.9912 39.5643 49.8221 36.5872 49.8221C32.5232 49.8221 30.1565 46.7258 30.1565 42.1561C30.1565 33.1352 38.2392 31.498 45.8909 31.498V33.7904ZM56.5639 59.5872C55.8642 60.2122 54.852 60.2571 54.0631 59.8401C50.5501 56.9226 49.9248 55.5681 47.9897 52.7843C42.1843 58.7089 38.0758 60.4801 30.5436 60.4801C21.6419 60.4801 14.705 54.9873 14.705 43.9869C14.705 35.3981 19.3645 29.5479 25.9883 26.6901C31.7344 24.1592 39.7579 23.7127 45.8909 23.0134V21.6438C45.8909 19.128 46.0842 16.1509 44.6107 13.9778C43.3155 12.0277 40.8445 11.2238 38.671 11.2238C34.6371 11.2238 31.0347 13.2928 30.1565 17.5798C29.9776 18.5327 29.2782 19.4706 28.3256 19.5152L18.0542 18.4138C17.191 18.2199 16.2384 17.5205 16.4766 16.1955C18.8434 3.75142 30.0818 0 40.1445 0C45.2951 0 52.0233 1.3696 56.0873 5.26974C61.2379 10.0776 60.7465 16.4932 60.7465 23.4746V39.9678C60.7465 44.9248 62.8008 47.0979 64.7358 49.7775C65.4205 50.7301 65.5695 51.8766 64.706 52.5908C62.5476 54.3918 58.707 57.7413 56.5934 59.617L56.5639 59.5872Z" fill="#000008"/>
<path d="M68.0932 65.8556C35.0733 81.5701 14.5808 68.4223 1.46285 60.4365C0.651124 59.9332 -0.728537 60.5542 0.468507 61.9291C4.83874 67.2281 19.1609 80 37.8555 80C56.563 80 67.6922 69.7925 69.0844 68.0118C70.4672 66.2463 69.4907 65.2723 68.0932 65.8556ZM77.3668 60.7343C76.48 59.5796 71.9749 59.3644 69.1396 59.7127C66.3 60.0509 62.0377 61.7864 62.4083 62.8284C62.5984 63.2187 62.9865 63.0436 64.9373 62.8682C66.8933 62.6731 72.3731 61.9815 73.5149 63.4741C74.662 64.9771 71.7672 72.1367 71.2385 73.2913C70.7276 74.446 71.4336 74.7438 72.3931 73.9747C73.3395 73.206 75.0527 71.2151 76.2024 68.3978C77.3442 65.5651 78.0407 61.6135 77.3668 60.7343Z" fill="#FF9900"/>
<path fill-rule="evenodd" clip-rule="evenodd" d="M45.8909 33.7904C45.8909 37.9136 45.9951 41.3522 43.911 45.0139C42.2289 47.9912 39.5643 49.8221 36.5872 49.8221C32.5232 49.8221 30.1565 46.7258 30.1565 42.1561C30.1565 33.1352 38.2392 31.498 45.8909 31.498V33.7904ZM56.5639 59.5872C55.8642 60.2122 54.852 60.2571 54.0631 59.8401C50.5501 56.9226 49.9248 55.5681 47.9897 52.7843C42.1843 58.7089 38.0758 60.4801 30.5436 60.4801C21.6419 60.4801 14.705 54.9873 14.705 43.9869C14.705 35.3981 19.3645 29.5479 25.9883 26.6901C31.7344 24.1592 39.7579 23.7127 45.8909 23.0134V21.6438C45.8909 19.128 46.0842 16.1509 44.6107 13.9778C43.3155 12.0277 40.8445 11.2238 38.671 11.2238C34.6371 11.2238 31.0347 13.2928 30.1565 17.5798C29.9776 18.5327 29.2782 19.4706 28.3256 19.5152L18.0542 18.4138C17.191 18.2199 16.2384 17.5205 16.4766 16.1955C18.8434 3.75142 30.0818 0 40.1445 0C45.2951 0 52.0233 1.3696 56.0873 5.26974C61.2379 10.0776 60.7465 16.4932 60.7465 23.4746V39.9678C60.7465 44.9248 62.8008 47.0979 64.7358 49.7775C65.4205 50.7301 65.5695 51.8766 64.706 52.5908C62.5476 54.3918 58.707 57.7413 56.5934 59.617L56.5639 59.5872Z" fill="#000008"/>
</svg>
