<svg width="90" height="90" viewBox="0 0 90 90" fill="none" xmlns="http://www.w3.org/2000/svg">
<g filter="url(#filter0_d_897_4371)">
<rect x="5" y="5" width="80" height="80" rx="8" fill="white"/>
</g>
<path d="M20.5286 37.7659C15.8766 37.7659 12 39.7396 12 45.694C12 50.4112 14.6067 53.3818 20.6487 53.3818C27.7605 53.3818 28.2164 48.697 28.2164 48.697H24.7704C24.7704 48.697 24.0316 51.2196 20.4385 51.2196C17.5121 51.2196 15.4073 49.2427 15.4073 46.4718H28.5768V44.733C28.5768 41.9917 26.8365 37.7659 20.5286 37.7659ZM20.4085 39.9882C23.1942 39.9882 25.0932 41.6947 25.0932 44.2525H15.4835C15.4835 41.5371 17.9623 39.9882 20.4085 39.9882Z" fill="#E53238"/>
<path d="M28.5745 32V50.3914C28.5745 51.4354 28.5 52.9012 28.5 52.9012H31.7867C31.7867 52.9012 31.9047 51.8484 31.9047 50.8863C31.9047 50.8863 33.5286 53.4268 37.944 53.4268C42.5936 53.4268 45.7519 50.1987 45.7519 45.5738C45.7519 41.2713 42.8509 37.8109 37.9515 37.8109C33.3636 37.8109 31.9379 40.2884 31.9379 40.2884V32H28.5745ZM37.1031 40.0857C40.2606 40.0857 42.2684 42.4291 42.2684 45.5738C42.2684 48.9459 39.9494 51.1519 37.1257 51.1519C33.7557 51.1519 31.9379 48.5207 31.9379 45.6038C31.9379 42.8858 33.5691 40.0857 37.1031 40.0857Z" fill="#0064D2"/>
<path d="M53.9225 37.7659C46.9238 37.7659 46.475 41.5981 46.475 42.2104H49.9585C49.9585 42.2104 50.1412 39.9732 53.6823 39.9732C55.9833 39.9732 57.7664 41.0264 57.7664 43.0513V43.772H53.6823C48.2603 43.772 45.3939 45.3582 45.3939 48.5769C45.3939 51.7446 48.0424 53.4681 51.6214 53.4681C56.4992 53.4681 58.0704 50.7729 58.0704 50.7729C58.0704 51.8449 58.1531 52.9013 58.1531 52.9013H61.2499C61.2499 52.9013 61.1298 51.5919 61.1298 50.7541V43.513C61.1298 38.7651 57.3001 37.7659 53.9225 37.7659ZM57.7664 45.9342V46.8952C57.7664 48.1486 56.993 51.2646 52.4398 51.2646C49.9464 51.2646 48.8774 50.0203 48.8774 48.5769C48.8774 45.9511 52.4774 45.9342 57.7664 45.9342Z" fill="#F5AF02"/>
<path d="M59.2513 38.3666H63.1703L68.7945 49.6345L74.4059 38.3666H77.9559L67.7349 58.427H64.0111L66.9605 52.8349L59.2513 38.3666Z" fill="#86B817"/>
<defs>
<filter id="filter0_d_897_4371" x="-3" y="-1" width="96" height="96" filterUnits="userSpaceOnUse" color-interpolation-filters="sRGB">
<feFlood flood-opacity="0" result="BackgroundImageFix"/>
<feColorMatrix in="SourceAlpha" type="matrix" values="0 0 0 0 0 0 0 0 0 0 0 0 0 0 0 0 0 0 127 0" result="hardAlpha"/>
<feOffset dy="2"/>
<feGaussianBlur stdDeviation="4"/>
<feComposite in2="hardAlpha" operator="out"/>
<feColorMatrix type="matrix" values="0 0 0 0 0 0 0 0 0 0 0 0 0 0 0 0 0 0 0.1 0"/>
<feBlend mode="normal" in2="BackgroundImageFix" result="effect1_dropShadow_897_4371"/>
<feBlend mode="normal" in="SourceGraphic" in2="effect1_dropShadow_897_4371" result="shape"/>
</filter>
</defs>
</svg>
