<svg width="80" height="80" viewBox="0 0 80 80" fill="none" xmlns="http://www.w3.org/2000/svg">
<path d="M72 0H8C3.58172 0 0 3.58172 0 8V72C0 76.4183 3.58172 80 8 80H72C76.4183 80 80 76.4183 80 72V8C80 3.58172 76.4183 0 72 0Z" fill="#F56502"/>
<path d="M33.0419 21.4837C33.0419 20.8859 33.1017 20.5272 34.118 20.5272H47.8082C50.1994 20.5272 51.5147 22.5598 52.4712 26.3859L53.2484 29.4348H55.5799C55.9983 20.7663 56.357 17 56.357 17C56.357 17 50.4984 17.6576 47.031 17.6576H29.5147L20.1289 17.3587V19.8696L23.2974 20.4674C25.5093 20.8859 26.0474 21.3641 26.2267 23.3967C26.2267 23.3967 26.4061 29.375 26.4061 39.2391C26.4061 49.1033 26.2267 55.0217 26.2267 55.0217C26.2267 56.8152 25.5093 57.4728 23.2974 57.8913L20.1289 58.4891V61L29.5147 60.7011H45.1777C48.7049 60.7011 56.8951 61 56.8951 61C57.0744 58.8478 58.2701 49.1033 58.4494 48.0272H56.2375L53.906 53.3478C52.0527 57.5326 49.3625 57.8315 46.3734 57.8315H37.4658C34.4767 57.8315 33.0419 56.6359 33.0419 54.0652V40.4348C33.0419 40.4348 39.6777 40.4348 41.8299 40.6141C43.5038 40.7337 44.5201 41.212 45.0582 43.5435L45.7756 46.6522H48.3462L48.1668 38.8207L48.5255 30.9293H45.9549L45.1179 34.3967C44.5799 36.6685 44.2212 37.087 41.8897 37.3261C38.8408 37.625 33.0419 37.5652 33.0419 37.5652V21.4837Z" fill="white"/>
</svg>
