<svg width="72" height="80" viewBox="0 0 72 80" fill="none" xmlns="http://www.w3.org/2000/svg">
<path d="M32.0028 24.6869L30.1557 3.76687C30.1557 1.69881 32.5742 0 35.6163 0C38.6637 0 41.0861 1.69881 41.0861 3.76687L39.2345 24.6869C39.0264 25.9469 37.4873 26.9194 35.6142 26.9194C33.7479 26.9194 32.207 25.9469 32.0028 24.6869Z" fill="#FFC220"/>
<path d="M24.3063 33.4495C25.2422 31.8265 25.1702 30.0113 24.181 29.2029L6.98515 17.1429C5.19918 16.1083 2.51649 17.3537 0.994998 19.9916C-0.531271 22.6265 -0.260524 25.571 1.52515 26.6038L20.5631 35.4692C21.7553 35.9125 23.372 35.0695 24.3063 33.4495Z" fill="#FFC220"/>
<path d="M46.9299 33.4495C47.8655 35.0704 49.4792 35.9125 50.6708 35.4692L69.712 26.6038C71.5052 25.571 71.7625 22.6265 70.247 19.9916C68.7183 17.3537 66.0329 16.1083 64.2499 17.1429L47.0541 29.2029C46.0705 30.0113 45.9944 31.8289 46.9299 33.4495Z" fill="#FFC220"/>
<path d="M32.0028 55.2766L30.1557 76.1961C30.1557 78.2671 32.5742 79.962 35.6163 79.962C38.6637 79.962 41.0861 78.2671 41.0861 76.1961L39.2345 55.2766C39.0264 54.0178 37.4873 53.0501 35.6142 53.0501C33.7479 53.0501 32.207 54.0178 32.0028 55.2766Z" fill="#FFC220"/>
<path d="M47.0541 50.7719L64.2499 62.8227C66.0329 63.8543 68.7183 62.6045 70.2469 59.9752C71.7625 57.3379 71.5051 54.3916 69.712 53.3543L50.6708 44.4994C49.4792 44.0505 47.8675 44.8922 46.9299 46.5149C45.9944 48.134 46.0705 49.954 47.0541 50.7719Z" fill="#FFC220"/>
<path d="M20.5631 44.4997L1.52515 53.3546C-0.260524 54.3919 -0.531271 57.3382 0.994998 59.9755C2.51649 62.6045 5.19918 63.8546 6.98515 62.823L24.181 50.7722C25.1702 49.954 25.2419 48.1373 24.3069 46.5152C23.3714 44.8922 21.7553 44.0507 20.5631 44.4997Z" fill="#FFC220"/>
</svg>
