<svg width="312" height="40" viewBox="0 0 312 40" fill="none" xmlns="http://www.w3.org/2000/svg">
<path d="M40.5347 0H43.3069C47.2079 0.217822 51.3663 0.950495 54.4753 3.50495C56.9505 5.52475 58 8.9505 57.3861 12.0594C56.9307 14.3564 55.8614 16.4951 54.7129 18.5347C52.396 22.5545 49.5248 26.2376 46.8119 30.0198C46.3168 30.6337 45.9406 31.4059 45.9802 32.2178C46.0396 32.8515 46.5347 33.3663 47.1089 33.604C48.2178 34.0594 49.4653 33.9604 50.6337 33.901C54.3564 33.505 57.9406 32.3762 61.4851 31.2475C61.7426 31.0891 61.8416 31.3663 61.9406 31.5644C58.1782 34.0594 54.1188 36.1584 49.8614 37.703C47.505 38.4951 45.0099 39.2475 42.4951 38.9505C41.1881 38.8119 39.8614 38.0396 39.4455 36.7129C38.9307 35.0099 39.1287 33.1089 39.8614 31.4852C40.9901 28.9505 42.7525 26.7921 44.396 24.5941C47.1485 20.9901 49.9802 17.4059 52.1386 13.3861C52.8713 11.9802 53.6238 10.2376 52.9109 8.67327C52.2574 7.22772 50.7921 6.37624 49.4059 5.72277C46.9505 4.63366 44.3168 3.9604 41.7228 3.22772C41.3267 3.49175 40.9373 3.74918 40.5545 4C41.4455 4.69307 42.3564 5.38614 43.2475 6.07921C39.8416 6.69307 36.4356 7.38614 33.0693 8.23762C27.9604 9.52475 22.9703 11.2277 18.0198 13.0099C18.4951 13.9802 18.9901 14.9505 19.4455 15.9208C18.3168 17.1683 17.2079 18.4158 16.099 19.6436C18.7723 20.4554 21.6832 20.5743 24.4158 19.9604C26.7525 19.4257 28.9703 18.3168 30.7525 16.7129C30.2574 16.099 29.6436 15.604 28.9901 15.2079C31.1683 15.2673 33.1485 17.1485 33.1485 19.3663C32.7261 19.3663 32.3036 19.3663 31.8812 19.3663C31.7888 18.8911 31.6568 18.4224 31.4851 17.9604C29.0099 20.198 25.8218 21.604 22.5149 21.9604C19.604 22.297 16.6337 21.901 13.8812 20.8713C14.0792 22.5611 14.264 24.2508 14.4356 25.9406C12.8713 26.5545 11.4257 27.4257 10.1386 28.4951C9.10891 29.3861 8.07921 30.4158 7.70297 31.7624C7.30693 32.9505 7.94059 34.297 8.9703 34.9307C10.2178 35.703 11.6832 36.0792 13.1485 36.2772C15.0495 36.5347 16.9901 36.5149 18.9109 36.3762C22.6733 36.099 26.4158 35.3861 30.0792 34.4951C30.4356 34.3564 30.6139 34.9505 30.2376 35.0495C27.3069 36.5545 24.2574 37.8218 21.0495 38.6337C18.0594 39.4257 14.9703 39.8218 11.8614 39.9208C8.71287 39.8218 5.34653 39.2079 2.85149 37.1485C0.990099 35.6436 0 33.2475 0 30.8713V30.7525C0.0594059 28.2376 0.910891 25.802 2.13861 23.6436C3.74257 20.5743 5.72277 17.703 8.05941 15.1485C12.099 10.6733 17.1683 7.22772 22.6139 4.73267C28.2772 2.17822 34.3168 0.336634 40.5347 0Z" fill="#FF5A00"/>
<path fill-rule="evenodd" clip-rule="evenodd" d="M89.1287 1.24767C93.6172 1.24767 98.1056 1.24107 102.594 1.22787C108.515 13.6635 114.436 26.0992 120.337 38.5348C115.861 38.5348 111.366 38.5348 106.891 38.5348C105.98 36.2906 105.063 34.0463 104.139 31.8021C97.9604 31.8021 91.7822 31.8021 85.604 31.8021C84.6271 34.0463 83.6436 36.2906 82.6535 38.5348C78.6139 38.5348 74.5743 38.5348 70.5347 38.5348C73.3862 32.812 76.2574 27.1091 79.0891 21.3863C82.4357 14.6536 85.802 7.96054 89.1287 1.24767ZM95.2079 10.1586C93.1881 14.6602 91.1683 19.1553 89.1485 23.6437C93.0825 23.6437 97.0099 23.6437 100.931 23.6437C99.0297 19.1487 97.1089 14.6536 95.2079 10.1586ZM123.723 1.24767C127.644 1.24767 131.558 1.24767 135.465 1.24767C135.465 13.6701 135.465 26.0992 135.465 38.5348C131.558 38.5348 127.644 38.5348 123.723 38.5348C123.723 26.0992 123.723 13.6701 123.723 1.24767ZM142.832 1.24767C146.752 1.24767 150.673 1.24767 154.594 1.24767C154.594 3.72952 154.594 6.21136 154.594 8.69321C150.673 8.69321 146.752 8.69321 142.832 8.69321C142.832 6.21136 142.832 3.72952 142.832 1.24767ZM162 1.28727C165.842 1.27407 169.683 1.27407 173.525 1.28727C173.525 6.34338 173.525 11.3929 173.525 16.4358C175.743 14.0199 178.772 12.2972 182.079 11.9605C185.069 11.6833 188.238 12.1784 190.792 13.8417C191.96 14.5744 193.01 15.5447 193.881 16.614C195.683 19.1289 196.733 22.1982 196.812 25.2873C196.891 27.8615 196.535 30.515 195.287 32.7922C194.475 34.2972 193.327 35.6239 191.98 36.6536C189.683 38.2774 186.871 39.2477 184.04 39.1685C181.386 39.1487 178.693 38.416 176.515 36.8714C175.327 36.0397 174.317 35.01 173.406 33.8813C173.406 35.4391 173.406 36.9902 173.406 38.5348C169.604 38.5348 165.802 38.5348 162 38.5348C161.987 26.1124 161.987 13.6965 162 1.28727ZM177.782 18.1388C176.198 18.4952 174.832 19.6437 174.178 21.1289C173.644 22.4358 173.465 23.8615 173.426 25.2675C173.446 27.1487 173.723 29.1883 174.99 30.6932C175.842 31.8417 177.287 32.317 178.634 32.5348C180.396 32.7922 182.139 31.9803 183.307 30.6734C184.376 29.6635 184.792 28.1982 185.01 26.7724C185.188 25.2279 185.129 23.6041 184.634 22.119C184.218 20.7922 183.426 19.5249 182.238 18.7922C180.911 17.9803 179.267 17.7823 177.782 18.1388ZM239.96 1.28727C243.802 1.27407 247.644 1.27407 251.485 1.28727C251.485 6.34338 251.492 11.3929 251.505 16.4358C253.406 14.3764 255.901 12.7724 258.693 12.1784C261.287 11.6239 264.059 11.8417 266.554 12.7328C269.386 13.8021 271.802 15.9605 273.089 18.6932C274.792 21.9407 275.149 25.7625 274.475 29.3269C274.02 31.7625 272.772 34.0398 270.99 35.7625C268.97 37.6833 266.257 38.812 263.505 39.1091C260.653 39.3665 257.663 38.8516 255.208 37.3269C253.723 36.4358 252.455 35.2279 251.366 33.8813C251.386 35.4457 251.386 36.9902 251.386 38.5348C247.558 38.5348 243.736 38.5348 239.921 38.5348C239.921 34.02 239.921 29.4985 239.921 24.9704C239.98 17.0695 239.96 9.16846 239.96 1.28727ZM255.762 18.1388C254.059 18.4952 252.634 19.8021 252.04 21.4259C251.564 22.713 251.406 24.0595 251.386 25.4259C251.446 26.9902 251.624 28.614 252.455 29.9803C252.931 30.713 253.485 31.4259 254.297 31.8021C255.545 32.416 256.99 32.7724 258.376 32.4556C259.921 32.0992 261.188 30.9704 262.059 29.6833C263.188 27.4853 263.327 24.8714 262.713 22.4952C262.356 21.0893 261.604 19.7427 260.396 18.911C259.05 18.0001 257.327 17.7625 255.762 18.1388ZM210.812 12.2576C213.861 11.6635 217.01 11.6437 220.099 11.8021C223.069 12.0199 226.119 12.4754 228.752 13.9011C230.059 14.6338 231.248 15.6437 232 16.9308C232.871 18.3962 233.188 20.119 233.208 21.8021C233.208 27.3731 233.208 32.9374 233.208 38.4952C229.604 38.4952 226.007 38.4952 222.416 38.4952C222.416 37.2279 222.416 35.9605 222.416 34.6932C220.772 36.8714 218.218 38.1586 215.584 38.6536C212.634 39.2279 209.505 39.3071 206.594 38.4358C205.168 37.9803 203.762 37.3071 202.693 36.218C201.584 35.1091 201.01 33.5645 200.931 32.0001C200.752 29.7823 201.545 27.4853 203.188 25.9209C205.248 23.9605 208.059 23.0695 210.812 22.5744C214.554 21.9407 218.376 21.8615 222.158 21.7625C222.158 20.4754 221.802 19.1091 220.832 18.218C219.921 17.3665 218.614 17.0893 217.386 17.1091C216.337 17.0893 215.208 17.3269 214.436 18.0794C213.941 18.5744 213.624 19.2279 213.426 19.8813C209.861 19.8813 206.29 19.8813 202.713 19.8813C202.97 18.218 203.584 16.5744 204.733 15.3071C206.297 13.5843 208.574 12.713 210.812 12.2576ZM216.951 26.8516C215.703 27.0497 214.376 27.3467 213.426 28.2378C212.337 29.2477 212.396 31.2873 213.644 32.1388C214.574 32.7526 215.723 32.812 216.792 32.7724C218.277 32.713 219.881 32.3368 220.891 31.1685C222 29.9605 222.218 28.2378 222.198 26.6536C220.436 26.6536 218.693 26.6536 216.951 26.8516ZM288.891 12.2378C292.02 11.6437 295.228 11.6437 298.376 11.8219C301.248 12.0397 304.178 12.515 306.733 13.8813C307.98 14.5744 309.109 15.5447 309.881 16.7526C310.733 18.0595 311.109 19.6437 311.168 21.2081C311.168 26.9638 311.168 32.7262 311.168 38.4952C307.591 38.4952 304.013 38.4952 300.436 38.4952C300.436 37.2279 300.416 35.9407 300.436 34.6734C298.752 36.911 296.099 38.1982 293.386 38.6932C290.455 39.2279 287.386 39.3071 284.515 38.3962C283.267 38.0001 282.059 37.4457 281.05 36.5744C279.941 35.6239 279.208 34.2378 279.01 32.7922C278.733 30.9704 278.99 29.0298 279.96 27.4457C280.99 25.7625 282.673 24.5744 284.475 23.8021C287.188 22.6536 290.178 22.317 293.109 22.0596C295.446 21.8813 297.822 21.8219 300.178 21.7625C300.119 20.5546 299.842 19.2675 298.97 18.3566C298.079 17.4259 296.752 17.1091 295.525 17.1091C294.376 17.0893 293.149 17.3071 292.337 18.1784C291.881 18.6536 291.624 19.2675 291.426 19.8813C287.861 19.8813 284.277 19.8813 280.713 19.8813C280.95 18.2576 281.545 16.6536 282.653 15.4061C284.218 13.5843 286.594 12.713 288.891 12.2378ZM294.891 26.8714C293.703 27.0496 292.436 27.3467 291.505 28.1586C290.337 29.1487 290.356 31.2873 291.663 32.1388C292.653 32.7922 293.921 32.8318 295.069 32.7724C296.495 32.6734 297.98 32.2378 298.931 31.1289C299.98 29.9011 300.238 28.218 300.158 26.6536C298.416 26.6536 296.653 26.6734 294.891 26.8714ZM142.832 12.6734C146.752 12.6734 150.673 12.6734 154.594 12.6734C154.594 21.2939 154.594 29.9143 154.594 38.5348C150.673 38.5348 146.752 38.5348 142.832 38.5348C142.832 29.9143 142.832 21.2939 142.832 12.6734Z" fill="#FF5A00"/>
</svg>
