<svg width="216" height="50" viewBox="0 0 216 50" fill="none" xmlns="http://www.w3.org/2000/svg">
<path d="M53.6594 37.2531V4.15039H73.2249V8.30058H57.7108V18.4785H71.6438V22.6286H57.7108V33.0041H74.3119V37.1544H53.6594V37.2531Z" fill="#E43225"/>
<path d="M94.8663 37.2529L88.1468 28.4585L81.4274 37.2529H76.6842L85.8741 25.4941L76.1901 13.3399H81.5262L88.1468 22.4308L94.8663 13.3399H100.104L90.9137 25.4941L99.6095 37.2529H94.8663Z" fill="#E43225"/>
<path d="M106.131 33.6958V50.0002H102.079V25.5931C102.079 19.3678 106.822 12.7472 114.233 12.7472C121.743 12.7472 127.376 17.4903 127.376 25.2966C127.376 32.9053 121.645 38.1425 115.123 38.1425C111.961 38.1425 107.712 36.7591 106.131 33.6958ZM123.127 25.2966C123.127 19.9606 119.668 16.7986 113.542 17.095C110.577 17.1938 106.032 19.3678 106.427 26.9764C106.526 29.4468 109.095 34.0911 114.727 34.0911C119.569 34.0911 123.127 31.3243 123.127 25.2966Z" fill="#E43225"/>
<path d="M130.836 13.3399H134.887V15.9091C136.864 13.6364 139.927 12.8458 143.188 12.8458V17.1937C142.694 17.0949 137.852 16.502 134.887 22.8261V37.3518H130.836V13.3399Z" fill="#E43225"/>
<path d="M144.273 25.2968C144.273 18.3798 149.213 12.7474 156.032 12.7474C164.53 12.7474 167.692 18.3798 167.692 25.5933V27.5696H148.719C149.016 32.115 153.067 34.4865 156.822 34.3877C159.589 34.2889 161.467 33.4984 163.443 31.5221L166.111 34.2889C163.64 36.6604 160.478 38.2415 156.625 38.2415C149.411 38.1427 144.273 32.8067 144.273 25.2968ZM155.735 16.7988C151.881 16.7988 148.917 20.1585 148.719 23.8146H163.443C163.443 20.2573 160.874 16.7988 155.735 16.7988Z" fill="#E43225"/>
<path d="M169.768 33.8934L172.732 31.2255C172.633 31.2255 174.215 32.8065 174.412 32.9053C175.104 33.4982 175.796 33.8935 176.685 34.0911C179.254 34.7828 183.898 34.5852 184.294 31.0278C184.491 29.0516 183.009 27.9646 181.329 27.2729C179.155 26.4824 176.784 26.1859 174.61 25.1978C172.139 24.1109 170.558 22.2334 170.558 19.4666C170.558 12.2531 180.835 11.0674 185.48 14.427C185.677 14.6247 187.95 16.6998 187.851 16.6998L184.887 19.0713C183.404 17.2927 182.021 16.4033 178.859 16.4033C177.278 16.4033 175.104 17.095 174.709 18.7749C174.116 21.1464 176.784 22.0357 178.562 22.5298C180.934 23.1227 183.503 23.518 185.578 24.8025C188.444 26.5812 189.136 30.4349 188.049 33.3994C186.863 36.6602 183.306 37.9448 180.143 38.0437C176.388 38.2413 173.128 37.0555 170.46 34.3875C170.262 34.3875 169.768 33.8934 169.768 33.8934Z" fill="#E43225"/>
<path d="M190.619 33.8936L193.584 31.2256C193.485 31.2256 195.066 32.8067 195.264 32.9055C195.956 33.4984 196.647 33.8936 197.537 34.0913C200.106 34.783 204.75 34.5853 205.145 31.028C205.343 29.0517 203.861 27.9648 202.181 27.2731C200.007 26.4826 197.635 26.1861 195.461 25.198C192.991 24.111 191.41 22.2335 191.41 19.4667C191.41 12.2533 201.687 11.0675 206.331 14.4272C206.529 14.6248 208.802 16.6999 208.703 16.6999L205.738 19.0715C204.256 17.2928 202.873 16.4035 199.711 16.4035C198.129 16.4035 195.956 17.0952 195.56 18.7751C194.967 21.1466 197.635 22.0359 199.414 22.53C201.786 23.1229 204.355 23.5181 206.43 24.8027C209.296 26.5814 209.987 30.4351 208.9 33.3995C207.715 36.6604 204.157 37.945 200.995 38.0438C197.24 38.2415 193.979 37.0557 191.311 34.3877C191.114 34.3877 190.619 33.8936 190.619 33.8936Z" fill="#E43225"/>
<path d="M209.886 13.34V10.7709H208.996V10.2768H211.368V10.7709H210.479V13.34H209.886Z" fill="#E43225"/>
<path d="M214.331 13.34V10.9685L213.441 13.34H213.244L212.354 10.9685V13.34H211.86V10.2768H212.651L213.441 12.3519L214.232 10.2768H215.022V13.34H214.331Z" fill="#E43225"/>
<path d="M26.1862 37.253L23.2217 29.3478H7.21355L4.24908 37.253H0L12.846 4.15021H17.4904L30.2376 37.253H26.1862ZM15.02 8.8933L8.99223 25.2964H21.5418L15.02 8.8933Z" fill="#FF9900"/>
<path d="M32.9064 37.2531V4.15039H37.0567V37.2531H32.9064Z" fill="#FF9900"/>
<path d="M43.282 37.2529V13.834H47.4323V37.2529H43.282Z" fill="#FF9900"/>
<path d="M51.3857 6.22528C51.3857 6.12647 51.3857 6.12647 51.3857 6.02766C51.3857 5.92884 51.3857 5.92885 51.3857 5.83003C48.2236 5.73122 45.6544 3.16206 45.5556 0C45.4568 0 45.3579 0 45.2591 0C45.1603 0 45.0615 0 44.9627 0C44.8639 3.16206 42.2947 5.73122 39.1326 5.83003C39.1326 5.92885 39.1326 5.92884 39.1326 6.02766C39.1326 6.12647 39.1326 6.12647 39.1326 6.22528C42.2947 6.3241 44.8639 8.89328 44.9627 12.0553C45.0615 12.0553 45.1603 12.0553 45.2591 12.0553C45.3579 12.0553 45.4568 12.0553 45.5556 12.0553C45.6544 8.89328 48.2236 6.3241 51.3857 6.22528Z" fill="#FF9900"/>
</svg>
