<svg width="200" height="60" viewBox="0 0 200 60" fill="none" xmlns="http://www.w3.org/2000/svg">
<path d="M124.019 46.9219C112.449 55.45 95.6788 60 81.24 60C60.9946 60 42.7684 52.5119 28.9797 40.0578C27.8963 39.0785 28.867 37.7438 30.167 38.5065C45.0478 47.1645 63.4472 52.3733 82.4534 52.3733C95.2715 52.3733 109.372 49.7212 122.338 44.2179C124.296 43.3858 125.934 45.5005 124.019 46.9219Z" fill="#FF9900"/>
<path d="M128.829 41.4182C127.356 39.5289 119.053 40.5256 115.326 40.9676C114.191 41.1062 114.018 40.1182 115.04 39.4075C121.653 34.7535 132.504 36.0969 133.769 37.6569C135.034 39.2255 133.44 50.1023 127.226 55.2937C126.272 56.091 125.362 55.6664 125.787 54.609C127.182 51.125 130.311 43.3162 128.829 41.4182Z" fill="#FF9900"/>
<path d="M115.586 6.55196V2.02792C115.586 1.34325 116.106 0.883914 116.73 0.883914H136.984C137.634 0.883914 138.154 1.35192 138.154 2.02792V5.90196C138.146 6.55196 137.6 7.4013 136.629 8.74465L126.133 23.7295C130.033 23.6341 134.15 24.2148 137.686 26.2081C138.484 26.6588 138.7 27.3175 138.761 27.9675V32.7949C138.761 33.4535 138.033 34.2249 137.27 33.8262C131.039 30.5589 122.762 30.2035 115.872 33.8609C115.17 34.2422 114.433 33.4795 114.433 32.8209V28.2362C114.433 27.4995 114.442 26.2428 115.179 25.1248L127.338 7.68731H116.756C116.106 7.68731 115.586 7.22798 115.586 6.55196Z" fill="#221F1F"/>
<path d="M41.7013 34.7798H35.5392C34.9499 34.7364 34.4819 34.2944 34.4385 33.7311V2.10615C34.4385 1.47348 34.9672 0.970802 35.6259 0.970802H41.3719C41.9699 0.996786 42.4466 1.45614 42.4899 2.02814V6.16219H42.6026C44.1019 2.16681 46.9186 0.303462 50.7147 0.303462C54.5713 0.303462 56.9807 2.16681 58.714 6.16219C60.2047 2.16681 63.5934 0.303462 67.2248 0.303462C69.8075 0.303462 72.6328 1.36947 74.3575 3.76149C76.3075 6.42218 75.9088 10.2876 75.9088 13.6763L75.9002 33.6358C75.9002 34.2684 75.3715 34.7798 74.7128 34.7798H68.5594C67.9441 34.7364 67.4501 34.2424 67.4501 33.6358V16.8743C67.4501 15.5396 67.5714 12.2116 67.2768 10.9462C66.8174 8.82288 65.4394 8.22487 63.6541 8.22487C62.1634 8.22487 60.6034 9.22154 59.9707 10.8162C59.338 12.4109 59.3987 15.0803 59.3987 16.8743V33.6358C59.3987 34.2684 58.87 34.7798 58.2114 34.7798H52.058C51.434 34.7364 50.9487 34.2424 50.9487 33.6358L50.94 16.8743C50.94 13.3469 51.5206 8.15553 47.144 8.15553C42.7153 8.15553 42.8886 13.2169 42.8886 16.8743V33.6358C42.8886 34.2684 42.3599 34.7798 41.7013 34.7798Z" fill="#221F1F"/>
<path d="M155.591 0.303462C164.734 0.303462 169.683 8.15553 169.683 18.1396C169.683 27.7857 164.214 35.4384 155.591 35.4384C146.612 35.4384 141.724 27.5864 141.724 17.8016C141.724 7.9562 146.673 0.303462 155.591 0.303462ZM155.643 6.76019C151.102 6.76019 150.816 12.9482 150.816 16.805C150.816 20.6703 150.755 28.9211 155.591 28.9211C160.366 28.9211 160.592 22.265 160.592 18.209C160.592 15.5396 160.479 12.3502 159.673 9.81955C158.98 7.6182 157.602 6.76019 155.643 6.76019Z" fill="#221F1F"/>
<path d="M181.539 34.7798H175.403C174.788 34.7364 174.294 34.2424 174.294 33.6358L174.285 2.00214C174.337 1.42147 174.848 0.970802 175.472 0.970802H181.184C181.721 0.996786 182.163 1.36081 182.284 1.85481V6.69085H182.397C184.122 2.36615 186.54 0.303462 190.795 0.303462C193.56 0.303462 196.255 1.30014 197.988 4.03016C199.6 6.56085 199.6 10.8162 199.6 13.8756V33.7831C199.531 34.3378 199.02 34.7798 198.413 34.7798H192.234C191.67 34.7364 191.202 34.3204 191.142 33.7831V16.6056C191.142 13.1476 191.54 8.0862 187.285 8.0862C185.786 8.0862 184.408 9.09155 183.723 10.6169C182.856 12.5496 182.744 14.4736 182.744 16.6056V33.6358C182.735 34.2684 182.198 34.7798 181.539 34.7798Z" fill="#221F1F"/>
<path d="M99.4393 19.6735V18.3388C94.9846 18.3388 90.2786 19.2922 90.2786 24.5442C90.2786 27.2049 91.6566 29.0076 94.0226 29.0076C95.756 29.0076 97.3073 27.9416 98.2867 26.2082C99.5 24.0762 99.4393 22.0742 99.4393 19.6735ZM105.653 34.693C105.246 35.057 104.657 35.083 104.197 34.8403C102.152 33.1416 101.788 32.353 100.661 30.7323C97.2813 34.1817 94.8893 35.213 90.5039 35.213C85.3212 35.213 81.2825 32.015 81.2825 25.6102C81.2825 20.6095 83.9952 17.2035 87.8519 15.5395C91.1973 14.0661 95.8686 13.8061 99.4393 13.3988V12.6015C99.4393 11.1368 99.552 9.40342 98.694 8.13808C97.94 7.00273 96.5013 6.53473 95.236 6.53473C92.8873 6.53473 90.7899 7.73941 90.2786 10.2354C90.1746 10.7901 89.7673 11.3361 89.2126 11.3621L83.2326 10.7208C82.7299 10.6081 82.1752 10.2008 82.3139 9.42943C83.6919 2.18403 90.2353 0 96.094 0C99.0927 0 103.01 0.797341 105.376 3.06803C108.375 5.86739 108.089 9.60275 108.089 13.6675V23.2702C108.089 26.1562 109.285 27.4216 110.411 28.9816C110.81 29.5363 110.897 30.2036 110.394 30.6196C109.137 31.6683 106.901 33.6183 105.671 34.7103L105.653 34.693Z" fill="#221F1F"/>
<path d="M18.6568 19.6735V18.3388C14.2021 18.3388 9.49606 19.2922 9.49606 24.5442C9.49606 27.2049 10.8741 29.0076 13.2401 29.0076C14.9734 29.0076 16.5248 27.9416 17.5041 26.2082C18.7175 24.0762 18.6568 22.0742 18.6568 19.6735ZM24.8708 34.693C24.4635 35.057 23.8742 35.083 23.4148 34.8403C21.3695 33.1416 21.0055 32.353 19.8788 30.7323C16.4988 34.1817 14.1068 35.213 9.72139 35.213C4.53869 35.213 0.5 32.015 0.5 25.6102C0.5 20.6095 3.21268 17.2035 7.06938 15.5395C10.4147 14.0661 15.0861 13.8061 18.6568 13.3988V12.6015C18.6568 11.1368 18.7695 9.40342 17.9115 8.13808C17.1574 7.00273 15.7188 6.53473 14.4534 6.53473C12.1047 6.53473 10.0074 7.73941 9.49606 10.2354C9.39206 10.7901 8.98472 11.3361 8.43005 11.3621L2.45001 10.7208C1.94734 10.6081 1.39267 10.2008 1.53134 9.42943C2.90935 2.18403 9.45272 0 15.3114 0C18.3101 0 22.2275 0.797341 24.5935 3.06803C27.5922 5.86739 27.3062 9.60275 27.3062 13.6675V23.2702C27.3062 26.1562 28.5022 27.4216 29.6289 28.9816C30.0275 29.5363 30.1142 30.2036 29.6115 30.6196C28.3549 31.6683 26.1188 33.6183 24.8882 34.7103L24.8708 34.693Z" fill="#221F1F"/>
</svg>
