<svg width="130" height="52" viewBox="0 0 130 52" fill="none" xmlns="http://www.w3.org/2000/svg">
<path d="M16.7819 11.3456C7.62798 11.3456 0 15.2291 0 26.9455C0 36.2274 5.12927 42.0726 17.0183 42.0726C31.0123 42.0726 31.9093 32.8545 31.9093 32.8545H25.1286C25.1286 32.8545 23.6747 37.8181 16.6047 37.8181C10.8463 37.8181 6.70462 33.9282 6.70462 28.476H32.6184V25.0546C32.6184 19.6606 29.1942 11.3456 16.7819 11.3456ZM16.5456 15.7183C22.027 15.7183 25.7638 19.0763 25.7638 24.1091H6.85459C6.85459 18.7661 11.7321 15.7183 16.5456 15.7183Z" fill="#E53238"/>
<path d="M32.6145 0V36.1884C32.6145 38.2426 32.4679 41.1269 32.4679 41.1269H38.9353C38.9353 41.1269 39.1674 39.0553 39.1674 37.1621C39.1674 37.1621 42.3627 42.1609 51.051 42.1609C60.2001 42.1609 66.4147 35.8091 66.4147 26.7088C66.4147 18.2429 60.7064 11.434 51.0658 11.434C42.038 11.434 39.2327 16.3089 39.2327 16.3089V0H32.6145ZM49.3965 15.9101C55.6094 15.9101 59.5602 20.5211 59.5602 26.7088C59.5602 33.3441 54.9972 37.6849 49.4408 37.6849C42.8097 37.6849 39.2327 32.5074 39.2327 26.7679C39.2327 21.4198 42.4424 15.9101 49.3965 15.9101Z" fill="#0064D2"/>
<path d="M82.488 11.3456C68.7166 11.3456 67.8334 18.8861 67.8334 20.091H74.688C74.688 20.091 75.0474 15.6888 82.0153 15.6888C86.5431 15.6888 90.0517 17.7612 90.0517 21.7455V23.1637H82.0153C71.3464 23.1637 65.7061 26.2847 65.7061 32.6182C65.7061 38.8512 70.9175 42.2425 77.9601 42.2425C87.5581 42.2425 90.65 36.9391 90.65 36.9391C90.65 39.0485 90.8126 41.1272 90.8126 41.1272H96.9063C96.9063 41.1272 96.6699 38.5506 96.6699 36.9022V22.6541C96.6699 13.3117 89.1342 11.3456 82.488 11.3456ZM90.0517 27.4182V29.3091C90.0517 31.7753 88.5298 37.9067 79.5704 37.9067C74.6642 37.9067 72.5607 35.4582 72.5607 32.6182C72.5607 27.4515 79.6445 27.4182 90.0517 27.4182Z" fill="#F5AF02"/>
<path d="M92.9758 12.5277H100.687L111.754 34.6992L122.796 12.5277H129.781L109.669 52H102.342L108.145 40.9966L92.9758 12.5277Z" fill="#86B817"/>
</svg>
