<svg width="127" height="60" viewBox="0 0 127 60" fill="none" xmlns="http://www.w3.org/2000/svg">
<path d="M50.8284 6.52684C49.5107 14.1197 45.8711 16.8808 41.4158 17.3828V19.5791H47.0006V38.8436C47.0006 44.2402 50.5774 46.8758 55.3465 46.8758C59.0489 46.8758 62.8767 45.307 64.1945 42.0439L62.8767 40.3497C62.2492 41.4164 60.2411 42.9852 57.7311 42.9852C54.97 42.9852 53.464 41.1027 53.464 36.3336V19.3281L62.7512 20.0183L63.2532 15.7512L53.464 16.1277V6.52684H50.8284ZM70.5951 36.1453L68.2105 36.2081C68.5243 39.2201 68.587 42.2322 68.2105 44.9932C68.2105 44.9932 72.9796 46.7503 77.8115 46.7503C84.3376 46.7503 89.5459 43.6127 89.5459 37.5259C89.5459 26.8582 73.7326 28.5525 73.7326 21.3988C73.7326 18.4495 76.4309 17.32 79.192 17.32C81.5138 17.32 83.3963 18.1358 83.7728 19.3281L85.3416 24.0344L87.6634 23.9089C87.7889 21.3988 87.9771 18.5123 88.3537 16.1905C86.3456 15.312 82.1413 14.81 79.5057 14.81C73.3561 14.81 68.3988 17.5083 68.3988 23.5324C68.3988 34.0745 83.8356 31.7528 83.8356 39.6594C83.8356 42.2949 82.1413 44.303 78.3762 44.303C74.7994 44.303 73.0424 42.4832 72.3521 40.6634L70.5951 36.1453ZM96.2603 56.4139C94.3778 56.4139 93.813 55.5354 93.562 54.2804L92.6207 49.3858L89.9852 49.5113C89.6087 52.3979 89.0439 55.6609 88.2909 58.2337C90.0479 59.426 92.1815 59.9907 95.068 59.9907C99.3351 59.9907 105.736 58.7985 111.509 45.1815L121.549 21.3988C122.365 19.5163 122.616 19.2653 125.063 18.324L126.381 17.822V15.6257L120.42 15.9395L114.082 15.6257V17.822L115.713 18.324C117.345 18.826 118.098 19.3908 118.098 20.7086C118.098 21.3988 117.909 21.7126 117.533 22.5911C116.843 24.3481 112.387 35.3296 110.191 40.0986C107.43 33.196 103.665 22.9049 103.226 21.3988C103.1 21.0223 103.037 20.7086 103.037 20.3948C103.037 19.3908 103.728 18.575 105.234 18.2613L107.305 17.822V15.6257L98.7076 15.9395L91.8677 15.6257V17.822L92.9972 18.1985C94.6288 18.7633 94.817 18.9515 95.8838 21.3361C100.214 31.1252 105.045 43.6127 106.614 47.6915C103.226 54.5314 99.2096 56.4139 96.2603 56.4139ZM13.5543 4.76981C13.5543 4.14229 13.617 3.76579 14.6838 3.76579H29.0538C31.5638 3.76579 32.9444 5.89932 33.9484 9.91539L34.7641 13.1157H37.2114C37.6507 4.01679 38.0272 0.0634766 38.0272 0.0634766C38.0272 0.0634766 31.8776 0.753738 28.238 0.753738H9.85193L0 0.439983V3.07553L3.32581 3.70304C5.64761 4.14229 6.21237 4.6443 6.40062 6.77784C6.40062 6.77784 6.58887 13.0529 6.58887 23.4069C6.58887 33.7608 6.40062 39.9731 6.40062 39.9731C6.40062 41.8557 5.64761 42.5459 3.32581 42.9852L0 43.6127V46.2483L9.85193 45.9345H26.2927C29.9951 45.9345 38.592 46.2483 38.592 46.2483C38.7802 43.9892 40.0352 33.7608 40.2235 32.6313H37.9017L35.4544 38.2161C33.5091 42.6087 30.6853 42.9224 27.5478 42.9224H18.1978C15.0603 42.9224 13.5543 41.6674 13.5543 38.9691V24.6619C13.5543 24.6619 20.5196 24.6619 22.7787 24.8501C24.5357 24.9756 25.6025 25.4777 26.1672 27.9249L26.9203 31.188H29.6186L29.4303 22.9676L29.8068 14.6845H27.1085L26.23 18.324C25.6652 20.7086 25.2887 21.1478 22.8414 21.3988C19.6411 21.7126 13.5543 21.6498 13.5543 21.6498V4.76981Z" fill="#F56502"/>
</svg>
