<svg width="248" height="60" viewBox="0 0 248 60" fill="none" xmlns="http://www.w3.org/2000/svg">
<path d="M218.514 18.4807L217.131 2.81966C217.131 1.27173 218.941 0 221.219 0C223.5 0 225.314 1.27173 225.314 2.81966L223.927 18.4807C223.772 19.4236 222.619 20.152 221.217 20.152C219.82 20.152 218.667 19.4236 218.514 18.4807Z" fill="#FFC220"/>
<path d="M212.752 25.0401C213.453 23.8254 213.399 22.4665 212.658 21.8614L199.785 12.833C198.448 12.0587 196.44 12.9912 195.301 14.9655C194.158 16.9381 194.361 19.1423 195.698 19.916L209.95 26.5525C210.842 26.884 212.053 26.2528 212.752 25.0401Z" fill="#FFC220"/>
<path d="M229.688 25.0401C230.389 26.2538 231.597 26.884 232.489 26.5525L246.743 19.916C248.085 19.1423 248.278 16.9381 247.143 14.9655C245.999 12.9912 243.989 12.0587 242.654 12.833L229.781 21.8614C229.045 22.4665 228.988 23.8274 229.688 25.0401Z" fill="#FFC220"/>
<path d="M218.514 41.3802L217.131 57.0405C217.131 58.5912 218.941 59.8599 221.219 59.8599C223.5 59.8599 225.314 58.5912 225.314 57.0405L223.927 41.3802C223.772 40.4376 222.619 39.7133 221.217 39.7133C219.82 39.7133 218.667 40.4376 218.514 41.3802Z" fill="#FFC220"/>
<path d="M229.781 38.0081L242.654 47.0293C243.989 47.8019 245.999 46.866 247.143 44.8978C248.278 42.9235 248.085 40.7179 246.743 39.9416L232.489 33.3124C231.597 32.9765 230.39 33.6064 229.688 34.8214C228.988 36.0335 229.045 37.3961 229.781 38.0081Z" fill="#FFC220"/>
<path d="M209.95 33.3124L195.698 39.9412C194.361 40.7179 194.159 42.9235 195.301 44.8978C196.44 46.866 198.448 47.8019 199.785 47.0293L212.658 38.0081C213.399 37.3961 213.452 36.0355 212.753 34.8214C212.052 33.6064 210.842 32.9765 209.95 33.3124Z" fill="#FFC220"/>
<path d="M140.018 37.9776C140.018 38.4593 139.976 38.9561 139.843 39.3902C139.297 41.1982 137.424 42.7264 135.082 42.7264C133.13 42.7264 131.579 41.6182 131.579 39.2745C131.579 35.6899 135.526 34.6988 140.018 34.7222V37.9776ZM147.066 31.7313C147.066 25.8171 144.54 20.6149 136.004 20.6149C131.621 20.6149 128.142 21.8464 126.243 22.9425L127.634 27.6952C129.368 26.6011 132.134 25.6944 134.75 25.6944C139.08 25.6837 139.79 28.1457 139.79 29.7241V30.0975C130.35 30.0835 124.384 33.3506 124.384 40.0106C124.384 44.0772 127.423 47.8877 132.705 47.8877C135.952 47.8877 138.67 46.5915 140.296 44.515H140.457C140.457 44.515 141.536 49.025 147.479 47.3001C147.167 45.423 147.066 43.4216 147.066 41.0115V31.7313Z" fill="#0071DC"/>
<path d="M7.80268 12.5621C8.52972 16.2406 10.6029 26.9128 10.6029 26.9128C11.4711 31.3016 12.2735 35.9028 12.8762 39.541H12.9818C13.5701 35.6775 14.4949 32.0165 15.4834 27.4827L18.9724 12.5621H26.6916L29.9541 27.8685C30.8108 32.1271 31.4916 35.407 32.0276 39.3677H32.1325C32.7221 35.3685 33.4857 31.9522 34.328 27.5809L37.4615 12.5621H44.8703L35.6936 47.3004C29.8472 48.5816 27.6074 46.2285 26.8022 42.4927C25.9998 38.7566 24.4321 31.6438 24.4321 31.6438C23.6286 27.7495 23.0008 25.0019 22.5597 21.0037H22.4494C21.8219 24.9627 21.1669 27.7371 20.1908 31.6294L16.3394 47.3004C10.371 48.4887 8.30045 46.7266 7.15173 41.9387C6.1676 37.8359 0 12.5621 0 12.5621H7.80268Z" fill="#0071DC"/>
<path d="M58.8791 37.9776C58.8791 38.4593 58.8372 38.9561 58.7041 39.3902C58.1581 41.1982 56.285 42.7264 53.9437 42.7264C51.9915 42.7264 50.4406 41.6182 50.4406 39.2745C50.4406 35.6899 54.3868 34.6988 58.8791 34.7222V37.9776ZM65.9256 31.7313C65.9256 25.8171 63.3999 20.6149 54.8651 20.6149C50.4815 20.6149 47.0015 21.8464 45.1046 22.9425L46.493 27.6952C48.2289 26.6011 50.993 25.6944 53.6102 25.6944C57.9432 25.6837 58.6522 28.1457 58.6522 29.7241V30.0975C49.2101 30.0835 43.2459 33.3506 43.2459 40.0106C43.2459 44.0772 46.2818 47.8877 51.5611 47.8877C54.8112 47.8877 57.5289 46.5915 59.158 44.515H59.3175C59.3175 44.515 60.3962 49.025 66.3389 47.3001C66.0268 45.423 65.9256 43.4216 65.9256 41.0115V31.7313Z" fill="#0071DC"/>
<path d="M70.6317 12.5618H77.6853V47.3001H70.6317V12.5618Z" fill="#0071DC"/>
<path d="M176.936 12.5621V20.7768H183.079V27.4233H176.936V37.2271C176.936 40.3994 177.742 41.9387 180.145 41.9387C181.277 41.9387 182.105 41.7969 182.824 41.6199L182.915 47.1322C181.948 47.4922 179.896 47.888 177.811 47.888C175.357 47.888 173.311 47.0316 172.068 45.7089C170.645 44.1972 169.98 41.7215 169.98 38.1888V12.5621H176.936Z" fill="#0071DC"/>
<path d="M158.154 21.2038V26.1261H158.352C159.648 22.3683 162.738 20.6149 165.453 20.6149C166.135 20.6149 166.509 20.6661 167.057 20.7768V27.609C166.403 27.5145 165.8 27.4233 164.957 27.4233C161.884 27.4233 159.743 29.2123 159.204 32.0115C159.091 32.588 159.047 33.2165 159.047 33.9375V47.3001H151.77V21.2038H158.154Z" fill="#0071DC"/>
<path d="M89.3574 21.2038V24.7498H89.462C90.6654 22.8516 92.6484 20.6149 97.0629 20.6149C100.498 20.6149 103.134 22.4702 104.255 25.2824H104.359C105.325 23.8656 106.431 22.7896 107.665 22.0324C109.133 21.1307 110.757 20.6149 112.815 20.6149C117.461 20.6149 121.577 23.8247 121.577 31.9304V47.3001H114.488V33.001C114.488 28.8928 113.096 26.5166 110.195 26.5166C108.067 26.5166 106.522 27.9426 105.939 29.6956C105.738 30.3013 105.644 31.1259 105.644 31.8111V47.3001H98.5602V32.4268C98.5602 28.9357 97.2211 26.5166 94.3599 26.5166C92.0708 26.5166 90.6376 28.319 90.0496 29.8595C89.7992 30.5199 89.7174 31.2784 89.7174 31.9957V47.3001H82.6257V21.2038H89.3574Z" fill="#0071DC"/>
</svg>
